<?xml version="1.0" standalone="no"?>
<!DOCTYPE svg PUBLIC "-//W3C//DTD SVG 20010904//EN"
 "http://www.w3.org/TR/2001/REC-SVG-20010904/DTD/svg10.dtd">
<svg version="1.0" xmlns="http://www.w3.org/2000/svg"
 width="32.000000pt" height="32.000000pt" viewBox="0 0 32.000000 32.000000"
 preserveAspectRatio="xMidYMid meet">

<g transform="translate(0.000000,32.000000) scale(0.100000,-0.100000)"
fill="#000000" stroke="none">
<path d="M250 288 c0 -8 5 -19 12 -26 9 -9 -3 -12 -55 -12 -75 0 -107 -19
-107 -65 0 -28 32 -65 55 -65 22 0 18 27 -5 33 -26 7 -36 33 -20 52 9 10 32
15 77 15 56 0 64 -2 53 -15 -6 -8 -10 -20 -8 -27 3 -8 16 -2 37 20 30 30 32
34 19 54 -8 12 -24 28 -36 36 -19 12 -22 12 -22 0z"/>
<path d="M150 186 c0 -7 9 -16 20 -19 26 -7 36 -33 20 -52 -9 -10 -32 -15 -77
-15 -56 0 -64 2 -53 15 19 23 8 37 -17 20 -45 -31 -47 -52 -12 -88 21 -21 34
-27 37 -19 2 7 -2 19 -8 27 -11 13 -3 15 54 15 74 0 106 20 106 65 0 28 -32
65 -55 65 -8 0 -15 -6 -15 -14z"/>
</g>
</svg>
